PathFileType	4	(X/Y/Z)	C:\Users\°ÂÌØÂü\Desktop\20210112\bx_n_5_1801-Unnamed.trc
DataRate	CameraRate	NumFrames	NumMarkers	Units	OrigDataRate	OrigDataStartFrame	OrigNumFrames
50.00	50.00	       4	0	mm	50.00	231	       460
Frame#	Time	
		

231	4.600	-780.09180	282.43854	865.71185	-659.26337	-30.05763	824.02179	-607.66608	90.25981	1295.97461	-715.68262	62.22068	217.75319	-643.28821	220.16554	533.12622	-735.33368	276.34537	739.36340	-708.47516	157.64427	216.19499	-593.32813	222.59554	175.57825	-644.30206	-8.68902	516.91931	-743.24237	263.08182	501.37320	-914.22516	81.08750	1053.31567	-651.54901	-71.98145	157.27208	-719.25287	257.82840	634.59326	-767.38434	229.46162	204.87315	-702.35992	256.27832	573.58002	-882.53644	296.19745	144.72226	-673.95825	48.61482	163.75696	-600.23651	20.95928	173.09799	-552.23132	-29.83694	165.45605	-674.53375	175.50500	160.35411	-607.97339	-78.46738	155.92937	-661.36023	300.60696	154.91295	-624.51764	308.68878	156.99486	-556.27850	256.58939	164.77754	-528.23340	303.99750	146.45462	-515.51019	91.76903	1787.05249	-639.29852	270.04477	1505.03235	-721.58405	230.50070	1050.90747	-518.04608	-72.83294	143.22929	-792.20844	38.53148	176.41870	-794.41302	178.34622	185.67256	-642.47345	-82.82578	1501.80737	-662.45142	53.73437	577.74890	-747.91028	-53.95841	488.07242	-761.35095	-23.20224	206.29820	-875.95648	-78.79716	141.44162	-701.15955	-51.72152	612.70410	-653.98248	159.33713	582.15497				-758.96381	-89.39183	866.04761	-699.00787	-50.29394	565.76642				-658.37115	226.51230	816.87463				-737.29639	-77.61950	750.19415	
232	4.620	-783.77234	283.24597	863.87030	-661.89240	-30.98255	824.48798	-606.69958	90.14513	1289.04199	-715.67639	62.01747	217.76355	-642.05396	221.27469	532.90729	-736.03241	277.97076	738.47290	-708.34735	157.49181	216.16122	-593.25922	222.45752	175.51474	-642.56146	-9.87127	516.21857	-741.54077	263.83478	501.13568				-651.51746	-72.20622	157.35065	-717.97113	258.20734	633.33655	-767.02997	229.71149	204.88528	-700.71436	257.40823	572.98596	-882.49835	296.27173	144.77898	-673.79907	48.69699	163.77864	-600.45575	20.77470	172.95970	-552.46814	-29.84290	165.10487	-674.53375	175.50500	160.35411	-607.78101	-78.51384	155.92142	-661.40997	300.76846	154.95560	-624.56335	308.88034	157.03299	-556.22369	256.51865	164.96187	-528.31927	304.03622	146.28537	-504.79266	92.32475	1778.54858	-634.76776	270.31866	1499.32007				-517.83502	-72.59410	143.23308	-792.14789	38.71567	176.60860	-794.36310	178.35915	185.75110	-638.17065	-82.68928	1496.03857	-660.44348	52.53503	577.77582	-745.23309	-54.78529	487.98743	-760.88916	-22.83305	206.05222	-875.85522	-78.73365	141.22168	-699.61810	-52.32195	612.20483	-651.81982	160.00238	582.55872	-727.42218	229.32961	1047.33398	-761.84607	-89.61646	864.62085	-697.20581	-51.56282	565.65686				-659.95905	227.12701	816.68433				-737.73590	-79.98061	750.08417	
233	4.640	-786.37732	284.13589	862.21545	-664.48975	-30.91067	823.71191	-605.76776	90.27090	1282.54578	-715.07068	62.06218	217.78485	-640.29755	221.51544	532.42035	-736.57190	278.46655	737.02417	-708.32153	157.54181	216.22742	-593.34998	222.66783	175.49843	-640.50146	-10.87944	515.74359	-740.32635	264.75500	500.98273	-719.73694	-17.32021	1033.80945	-651.47784	-72.15421	157.21028	-716.77386	259.24524	633.33923	-767.10962	229.71927	204.86955	-698.85016	258.27557	572.71271	-882.55408	296.28027	144.78130	-673.57837	48.67205	163.94899	-599.98206	20.57525	173.14160	-552.38910	-29.94631	165.13028	-674.46710	175.72769	160.03882	-608.01080	-78.63673	155.60381	-661.40997	300.76846	154.95560	-624.62488	308.63324	156.82416	-556.32501	256.58603	164.71381	-528.20990	304.37756	146.57051	-494.45139	92.76530	1769.42798	-630.75256	270.24731	1493.39636				-517.94849	-72.82160	143.31104	-792.03937	38.72199	176.65686	-794.35168	178.19728	185.77328	-633.60669	-82.82493	1490.24011	-657.74103	51.49702	577.32867	-744.78149	-55.82243	487.54568	-760.64441	-22.86871	205.97313	-875.95135	-78.62993	141.22516	-697.65271	-53.89063	611.94434	-650.34851	160.63055	582.49445	-732.13446	230.17281	1044.99597	-765.53186	-89.64999	862.32019	-695.12372	-52.14023	564.80896				-661.94012	228.31184	816.95831				-739.26276	-80.51100	748.06470	
234	4.660	-789.33044	285.27783	860.69312	-666.88202	-32.30141	823.23340	-605.40039	90.53775	1275.50195	-714.79529	62.05023	217.90211	-638.84045	222.49431	531.96173	-737.13849	279.24600	736.02332	-708.20953	157.44440	216.23061	-593.12598	222.32918	175.45848	-639.09094	-12.00890	515.62933	-738.73279	265.29398	500.21100	-724.61285	-16.98260	1029.42859	-651.37903	-72.16723	157.31799	-715.75494	259.85211	632.25073	-766.91968	229.87666	204.80923	-697.08984	259.61157	572.94489	-882.55304	296.06750	144.54214	-673.56042	48.52372	163.90179	-600.08411	20.73206	173.15219	-552.35834	-29.88379	165.11386	-674.43292	175.78902	160.11946	-607.89160	-78.53293	155.75853	-661.34814	300.66418	154.97337	-624.80939	308.67380	156.95564	-556.30664	256.55603	164.71040	-528.23962	304.12503	146.30989	-484.59778	92.74665	1760.17346	-626.90100	270.00717	1487.13892				-517.94586	-72.70454	143.25447	-792.03571	38.89020	176.63853	-794.23212	178.23071	185.68985	-629.19696	-82.75380	1484.19360	-655.80981	50.17653	577.76520	-743.28577	-56.58126	487.38397	-760.19299	-23.21187	206.10216	-875.85522	-78.73365	141.22168	-696.64911	-54.70699	611.63452	-649.64185	161.49553	581.84808	-736.44531	229.99835	1042.06531	-769.39581	-90.07314	860.59479	-693.51697	-53.10661	564.38904				-664.05792	228.49065	816.62830				-741.20197	-81.13066	746.58752	
